<!DOCTYPE svg PUBLIC "-//W3C//DTD SVG 1.1//EN" "http://www.w3.org/Graphics/SVG/1.1/DTD/svg11.dtd">
<!-- Uploaded to: SVG Repo, www.svgrepo.com, Transformed by: SVG Repo Mixer Tools -->
<svg fill="#ffffff" height="800px" width="800px" version="1.1" id="Layer_1" xmlns="http://www.w3.org/2000/svg" xmlns:xlink="http://www.w3.org/1999/xlink" viewBox="0 0 511.999 511.999" xml:space="preserve" stroke="#ffffff">
<g id="SVGRepo_bgCarrier" stroke-width="0"/>
<g id="SVGRepo_tracerCarrier" stroke-linecap="round" stroke-linejoin="round"/>
<g id="SVGRepo_iconCarrier"> <g> <g> <path d="M409.726,153.599c0-91.31-79.568-163.392-172.123-152.51c-66.947,7.86-122.869,61.298-133.194,128.178 c-6.407,41.485,2.31,63.586,16.75,100.2c6.719,17.034,14.935,37.886,24.062,66.496c-5.403,8.114-8.561,17.845-8.561,28.302 c0,18.108,9.456,34.037,23.681,43.142c-4.203,7.429-6.614,15.998-6.614,25.124c0,22.249,14.269,41.219,34.133,48.265 c0,43.834,32.931,71.202,68.267,71.202c35.165,0,68.267-27.147,68.267-71.202c19.864-7.045,34.133-26.015,34.133-48.265 c0-9.126-2.412-17.696-6.614-25.124c14.225-9.106,23.681-25.035,23.681-43.142c0-10.496-3.179-20.262-8.619-28.392 c10.389-32.704,19.093-54.178,25.586-70.192C403.265,199.279,409.726,183.342,409.726,153.599z M256.126,477.867 c-18.821,0-34.133-15.312-34.133-34.133h68.267C290.259,462.555,274.947,477.867,256.126,477.867z M307.326,409.6h-102.4 c-9.411,0-17.067-7.656-17.067-17.067s7.656-17.067,17.067-17.067h102.4c9.411,0,17.067,7.656,17.067,17.067 S316.736,409.6,307.326,409.6z M324.392,341.333c-15.673,0-120.85,0-136.534,0c-9.411,0-17.067-7.656-17.067-17.067 s7.656-17.067,17.067-17.067c13.265,0,123.658,0,136.534,0c9.411,0,17.067,7.656,17.067,17.067S333.803,341.333,324.392,341.333z M238.718,273.066v-34.133h34.247v34.133H238.718z M360.927,212.857c-5.981,14.755-13.779,33.992-23.035,62.028 c-4.304-1.179-8.827-1.819-13.5-1.819h-17.408c0-54.385,0.114-51.2,0.114-51.2c0-17.452,7.025-33.86,19.366-46.201l9.997-9.998 c6.664-6.665,6.663-17.472-0.001-24.137c-6.666-6.664-17.472-6.663-24.137,0.001l-9.995,9.997 c-14.699,14.699-24.203,33.196-27.656,53.271h-37.092c-3.453-20.076-12.956-38.573-27.655-53.27l-9.998-9.998 c-6.664-6.664-17.471-6.664-24.136,0c-6.665,6.664-6.665,17.471,0,24.136l9.998,9.999c11.799,11.797,18.512,27.314,19.081,43.906 c-0.246,1.823-0.172-2.197-0.172,53.495h-16.839c-4.707,0-9.263,0.652-13.594,1.847c-8.06-24.248-15.299-42.616-21.354-57.969 c-13.98-35.445-19.766-50.117-14.77-82.467c7.959-51.544,51.462-93.383,103.441-99.486c74.002-8.686,134.01,49.28,134.01,118.61 C375.593,176.685,370.997,188.021,360.927,212.857z"/> </g> </g> </g>
</svg>